<svg version="1.1" id="Livello_1" xmlns="http://www.w3.org/2000/svg" xmlns:xlink="http://www.w3.org/1999/xlink" x="0px"
    y="0px" style="enable-background:new 0 0 138.1 138;" xml:space="preserve" viewBox="-0.03 -0.03 138.12 138.1">
    <g>
        <path
            d="M122.2,0.2c-7.5-1.1-14.9,2.3-18.8,8.8c-0.3,0.5-0.9,0.6-1.3,0.3c-0.1-0.1-0.2-0.2-0.3-0.3C96.5,0.2,85.1-2.6,76.3,2.7   c-2.6,1.6-4.8,3.8-6.4,6.4c-0.3,0.5-0.9,0.6-1.3,0.3c-0.1-0.1-0.2-0.2-0.3-0.3C62.9,0.2,51.5-2.6,42.6,2.7S31,19.4,36.3,28.2   c1.6,2.6,3.8,4.8,6.4,6.4c0.5,0.3,0.6,0.9,0.3,1.3c-0.1,0.1-0.2,0.2-0.3,0.3c-2.6,1.6-4.8,3.8-6.4,6.4C36,43.1,35.4,43.2,35,43   c-0.1-0.1-0.2-0.2-0.3-0.3C29.3,33.8,17.9,30.9,9,36.3S-2.6,53,2.7,61.8s16.8,11.7,25.6,6.4c2.6-1.6,4.8-3.8,6.4-6.4   c0.3-0.5,0.9-0.6,1.3-0.3c0.1,0.1,0.2,0.2,0.3,0.3c5.3,8.8,16.8,11.7,25.6,6.4s11.7-16.8,6.4-25.6c-1.6-2.6-3.8-4.8-6.4-6.4   c-0.5-0.3-0.6-0.9-0.3-1.3c0.1-0.1,0.2-0.2,0.3-0.3c2.6-1.6,4.8-3.7,6.4-6.4c0.3-0.5,0.9-0.6,1.3-0.3c0.1,0.1,0.2,0.2,0.3,0.3   c5.3,8.8,16.7,11.7,25.5,6.4c2.6-1.6,4.8-3.8,6.4-6.4c0.3-0.5,0.9-0.6,1.3-0.3c0.1,0.1,0.2,0.2,0.3,0.3c5.3,8.8,16.8,11.7,25.6,6.4   s11.7-16.8,6.4-25.6C132.5,4.3,127.7,1.1,122.2,0.2" />
        <path
            d="M122.2,67.4c-7.5-1.1-14.9,2.3-18.8,8.8c-0.3,0.5-0.9,0.6-1.3,0.3c-0.1-0.1-0.2-0.2-0.3-0.3c-5.3-8.8-16.8-11.7-25.6-6.4   c-8.8,5.3-11.7,16.8-6.4,25.6c1.6,2.6,3.8,4.8,6.4,6.4c0.5,0.3,0.6,0.9,0.3,1.3c-0.1,0.1-0.2,0.2-0.3,0.3c-2.6,1.6-4.8,3.8-6.4,6.4   c-0.3,0.5-0.9,0.6-1.3,0.3c-0.1-0.1-0.2-0.2-0.3-0.3c-5.3-8.8-16.7-11.7-25.5-6.4c-2.6,1.6-4.8,3.8-6.4,6.4   c-0.3,0.5-0.9,0.6-1.3,0.3c-0.1-0.1-0.2-0.2-0.3-0.3c-5.3-8.8-16.8-11.7-25.6-6.4c-8.8,5.3-11.7,16.8-6.4,25.6s16.8,11.7,25.6,6.4   c2.6-1.6,4.8-3.8,6.4-6.4c0.3-0.5,0.9-0.6,1.3-0.3c0.1,0.1,0.2,0.2,0.3,0.3c5.3,8.8,16.7,11.7,25.5,6.4c2.6-1.6,4.8-3.8,6.4-6.4   c0.3-0.5,0.9-0.6,1.3-0.3c0.1,0.1,0.2,0.2,0.3,0.3c5.3,8.8,16.8,11.7,25.6,6.4c8.8-5.3,11.7-16.8,6.4-25.6   c-1.6-2.6-3.8-4.8-6.4-6.4c-0.5-0.3-0.6-0.9-0.3-1.3c0.1-0.1,0.2-0.2,0.3-0.3c2.6-1.6,4.8-3.7,6.4-6.3c0.3-0.5,0.9-0.6,1.3-0.3   c0.1,0.1,0.2,0.2,0.3,0.3c5.3,8.8,16.8,11.7,25.6,6.4c8.8-5.3,11.7-16.8,6.4-25.6C132.5,71.4,127.7,68.2,122.2,67.4" />
    </g>
</svg>